<svg width="275" height="444" viewBox="0 0 275 444" fill="none" xmlns="http://www.w3.org/2000/svg">
<path opacity="0.967335" fill-rule="evenodd" clip-rule="evenodd" d="M178.5 444C231.795 444 275 436.389 275 427C275 417.611 231.795 410 178.5 410C163.243 410 148.813 410.624 135.987 411.734C104.009 414.503 82 420.299 82 427C82 436.389 125.205 444 178.5 444Z" fill="#EDEDED"/>
<path fill-rule="evenodd" clip-rule="evenodd" d="M142.34 428.732C147.692 427.788 159.379 428.146 162.266 425.218C165.07 422.375 161.334 413.864 159.598 410.088C146.379 412.419 159.227 414.165 145.919 416.512C144.476 416.766 141.77 413.232 139.672 413.602C133.648 414.664 126.648 414.578 122.99 416.543C119.768 418.274 117.139 418.589 117.652 421.496C118.747 427.703 129.8 430.943 142.34 428.732Z" fill="#202338"/>
<path fill-rule="evenodd" clip-rule="evenodd" d="M230.541 434.176C237.332 430.597 245.909 429.957 247.792 426.495C249.621 423.133 244.049 415.668 241.505 412.374C230.061 417.469 242.033 414.938 230.511 420.068C229.263 420.624 226.07 419.246 224.254 420.055C219.038 422.377 212.641 423.793 209.81 426.485C207.317 428.856 205.004 429.725 206.212 432.439C208.791 438.232 220.132 439.663 230.541 434.176Z" fill="#202338"/>
<path fill-rule="evenodd" clip-rule="evenodd" d="M226.256 416.493C226.256 416.493 225.897 420.47 226.029 420.564C226.17 420.649 242.093 423.73 242 420.598C241.921 418.106 240.992 415 240.992 415L226.256 416.493Z" fill="#2F6B8C"/>
<path fill-rule="evenodd" clip-rule="evenodd" d="M162.075 210.154L238.868 217.433C238.868 217.433 239.065 249.139 238.87 262.167C238.591 280.765 239.955 296.493 238.871 308.883C238.103 317.655 238.156 331.489 238.872 345.934C239.876 366.18 246.179 421.166 246.179 421.166C246.179 421.166 237.966 423.121 234.772 423.121C231.579 423.121 223.805 421.165 223.805 421.165C223.805 421.165 209.405 362.621 208.009 332.776C206.613 302.931 195.723 249.448 195.723 249.448C195.723 249.448 181.603 301.157 177.3 324.442C172.996 347.727 162.081 417.857 162.081 417.857C162.081 417.857 153.801 418.444 150.103 417.856C146.405 417.268 140.013 414.347 140.013 414.347C140.013 414.347 144.896 351.142 147.75 318.52C150.604 285.899 162.075 210.154 162.075 210.154Z" fill="#5F6D78"/>
<path fill-rule="evenodd" clip-rule="evenodd" d="M161.5 202.5L239.5 209V223L161.5 217V202.5Z" fill="white"/>
<path fill-rule="evenodd" clip-rule="evenodd" d="M157 73.7688C157 73.7688 167.904 69.3844 170.521 69.3844C173.138 69.3844 194.947 69.3844 194.947 69.3844C194.947 69.3844 199.214 67.6263 201.053 67.1922C209.35 65.2337 215.009 65 218.5 65C224.897 65 233.766 73.7688 233.766 73.7688L230.277 131.643L239 211L157 206.616V73.7688Z" fill="#EE518B"/>
<path fill-rule="evenodd" clip-rule="evenodd" d="M187.624 59C194.507 59 200.041 55.4615 207.285 50.5962C211.337 47.8744 212.976 41.2988 212.976 36.4423C212.976 31.5285 215.279 27.6243 212.976 24.9423C209.326 20.6912 200.143 13 193.31 13C187.479 13 180.96 19.2822 177.276 22.2885C173.919 25.0282 175.268 33.9242 175.268 39.9808C175.268 47.6189 174.504 53.7532 177.276 56.7885C179.114 58.801 183.181 59 187.624 59Z" fill="#F4BDA3"/>
<path fill-rule="evenodd" clip-rule="evenodd" d="M100.633 103.986L104.79 92.434L102.14 86.0611L95.9022 82.1634C95.9022 82.1634 92.4869 83.3194 90.8471 83.7213C89.2072 84.1231 84.5795 86.2742 84.5795 86.2742L84.4881 93.8979L86.8534 104.809L100.633 103.986Z" fill="#F4BDA3"/>
<path fill-rule="evenodd" clip-rule="evenodd" d="M184.786 50H208V67.2288C208 67.2288 199.501 70.9394 195.5 71.6465C191.499 72.3535 183 71.6465 183 71.6465L184.786 50Z" fill="#F4BDA3"/>
<path fill-rule="evenodd" clip-rule="evenodd" d="M199.727 26.6412C204.113 28.3802 205.741 38.5051 209.449 36.8093C211.217 36.0009 210.799 35.0145 211.63 34.1567C212.46 33.299 214.037 29.8694 214.037 26.6412C214.037 22.4037 218.454 13.2847 214.037 8.07344C211.758 5.38442 209.876 2.18337 205 1C201.902 0.248215 195.708 1 193.5 1C191.61 1 184.484 -0.132802 181.5 1C176.935 2.73336 176.336 7.10518 174.132 8.07344C168.312 10.6304 172.388 26.2575 172.388 31.0621C172.388 38.8752 187.461 21.7782 199.727 26.6412Z" fill="#163342"/>
<path fill-rule="evenodd" clip-rule="evenodd" d="M176 70.2632L177.743 76.8421L186.455 90L210.851 76.8421L220 65H215.208H208.673L198 70.2632L182.97 67.6316L176 70.2632Z" fill="white"/>
<path fill-rule="evenodd" clip-rule="evenodd" d="M220.166 96.8732C217.551 89.6661 217.106 87.2676 217.106 87.2676L213.172 75.9155L217.106 67.6197L220.166 65L228.033 67.6197C228.033 67.6197 238.047 77.4591 241.146 82.0282C244.244 86.5972 261.689 127 261.689 127C261.689 127 264.311 137.042 261.689 141.408C259.066 145.775 257.755 149.704 257.755 149.704C257.755 149.704 250.566 158.882 245.954 162.366C241.341 165.851 205.742 189 205.742 189L197 176.338L234.589 141.408L238.086 138.789L234.589 126.563C234.589 126.563 222.78 104.08 220.166 96.8732Z" fill="#EE518B"/>
<path fill-rule="evenodd" clip-rule="evenodd" d="M137.073 105.276L148.45 87.3247C148.45 87.3247 152.645 77.444 155.233 75.0653C161.092 69.6788 167.261 70.7856 169.892 72.0005C175.58 74.6275 173.392 87.3247 173.392 87.3247L155.233 118.849L119.132 153L78 111.406L90.6898 100.46L122.195 123.665L137.073 105.276Z" fill="#EE518B"/>
<path fill-rule="evenodd" clip-rule="evenodd" d="M197 177L185 179.667L181 185.444V193C181 193 183.79 195.346 185 196.556C186.21 197.765 189 201 189 201L197 196.556L205 188.556L197 177Z" fill="#F4BDA3"/>
<path fill-rule="evenodd" clip-rule="evenodd" d="M89.6335 271C139.137 271 179.267 230.929 179.267 181.5C179.267 132.071 139.137 92 89.6335 92C40.1303 92 0 132.071 0 181.5C0 230.929 40.1303 271 89.6335 271Z" fill="#1D425F"/>
<path opacity="0.624547" fill-rule="evenodd" clip-rule="evenodd" d="M89.6335 271C139.137 271 179.267 230.929 179.267 181.5C179.267 132.071 139.137 92 89.6335 92V271Z" fill="#255072" fill-opacity="0.589306"/>
<path fill-rule="evenodd" clip-rule="evenodd" d="M122.036 161.226C122.036 156.431 117.459 152.507 111.75 152.507H39.7436C34.0625 152.507 29.457 156.411 29.457 161.226V213.539C29.457 218.335 34.0346 222.258 39.7436 222.258H111.75C117.431 222.258 122.036 218.355 122.036 213.539V161.226ZM111.937 170.155V213.854H39.5566V170.155H111.937Z" fill="white"/>
<path fill-rule="evenodd" clip-rule="evenodd" d="M43.344 164.272C45.4357 164.272 47.1313 162.579 47.1313 160.491C47.1313 158.402 45.4357 156.709 43.344 156.709C41.2523 156.709 39.5566 158.402 39.5566 160.491C39.5566 162.579 41.2523 164.272 43.344 164.272Z" fill="#0F4A81"/>
<path fill-rule="evenodd" clip-rule="evenodd" d="M54.2851 164.272C56.3768 164.272 58.0725 162.579 58.0725 160.491C58.0725 158.402 56.3768 156.709 54.2851 156.709C52.1934 156.709 50.4978 158.402 50.4978 160.491C50.4978 162.579 52.1934 164.272 54.2851 164.272Z" fill="#0F4A81"/>
<path fill-rule="evenodd" clip-rule="evenodd" d="M65.2263 164.272C67.318 164.272 69.0136 162.579 69.0136 160.491C69.0136 158.402 67.318 156.709 65.2263 156.709C63.1346 156.709 61.439 158.402 61.439 160.491C61.439 162.579 63.1346 164.272 65.2263 164.272Z" fill="#0F4A81"/>
<path fill-rule="evenodd" clip-rule="evenodd" d="M142.656 134.859L99.3123 153.959V182.608C99.3123 209.108 117.806 233.89 142.656 239.906C167.507 233.89 186 209.108 186 182.608V153.959L142.656 134.859ZM143.077 163.432C149.852 163.432 156.627 168.701 156.627 175.407V182.592C159.531 182.592 162.434 185.467 162.434 188.82V205.585C162.434 208.459 159.531 211.333 156.143 211.333H129.527C126.623 211.333 123.719 208.459 123.719 205.106V188.341C123.719 185.467 126.623 182.592 129.527 182.592V175.407C129.527 168.701 136.302 163.432 143.077 163.432ZM135.502 175.557C135.502 171.716 138.841 169.315 142.656 169.315C146.472 169.315 149.81 171.716 149.81 175.557V182.761H135.502V175.557Z" fill="#50E3C2"/>
</svg>
