<svg width="127" height="104" viewBox="0 0 127 104" fill="none" xmlns="http://www.w3.org/2000/svg">
<path opacity="0.146456" fill-rule="evenodd" clip-rule="evenodd" d="M48.3079 103.094C77.0267 103.094 124.808 95.2085 124.808 67.5943C124.808 58.3474 127.891 43.6119 124.808 31.0943C121.881 19.2105 113.084 9.46855 102.308 3.09431C90.5376 -3.86789 58.28 3.09431 48.3079 3.09431C19.5891 3.09431 35.8079 41.5943 26.8079 60.0943C17.8079 78.5943 19.5891 103.094 48.3079 103.094Z" fill="#50E3C2"/>
<path opacity="0.146456" fill-rule="evenodd" clip-rule="evenodd" d="M7.62556 27.4848C4.76285 32.6492 1.41809 42.0277 6.38391 44.7803C9.62544 46.5771 15.6663 49.838 20.2256 47.1636C22.6509 45.7409 20.7152 37.0848 21.7093 35.2915C24.572 30.127 24.6231 29.7366 19.6572 26.984C14.6914 24.2314 10.4883 22.3203 7.62556 27.4848Z" fill="#50E3C2"/>
<path fill-rule="evenodd" clip-rule="evenodd" d="M48.25 30.3H95.5V48.85C97.4162 48.85 99.2012 49.3535 100.75 50.2545V30.3C100.75 27.3729 98.3995 25 95.5 25H48.25C45.3363 25 43 27.3585 43 30.3V62.1C43 65.015 45.3363 67.4 48.25 67.4H66.625V72.7H61.375V78H82.375V72.7H77.125V67.4H82.375V62.1H48.25V30.3ZM96.8125 54.15C100.437 54.15 103.375 57.1161 103.375 60.775V62.1C104.825 62.1 106 63.2864 106 64.75V75.35C106 76.8136 104.825 78 103.375 78H90.25C88.8003 78 87.625 76.8136 87.625 75.35V64.75C87.625 63.2864 88.8003 62.1 90.25 62.1V60.775C90.25 57.1161 93.1881 54.15 96.8125 54.15ZM96.8125 56.8C94.6379 56.8 92.875 58.5797 92.875 60.775V62.1H100.75V60.775C100.75 58.5797 98.9871 56.8 96.8125 56.8Z" fill="url(#paint0_linear)"/>
<path d="M95.5 30.3H96.5V29.3H95.5V30.3ZM48.25 30.3V29.3H47.25V30.3H48.25ZM95.5 48.85H94.5V49.85H95.5V48.85ZM100.75 50.2545L100.247 51.1189L101.75 51.9932V50.2545H100.75ZM66.625 67.4H67.625V66.4H66.625V67.4ZM66.625 72.7V73.7H67.625V72.7H66.625ZM61.375 72.7V71.7H60.375V72.7H61.375ZM61.375 78H60.375V79H61.375V78ZM82.375 78V79H83.375V78H82.375ZM82.375 72.7H83.375V71.7H82.375V72.7ZM77.125 72.7H76.125V73.7H77.125V72.7ZM77.125 67.4V66.4H76.125V67.4H77.125ZM82.375 67.4V68.4H83.375V67.4H82.375ZM82.375 62.1H83.375V61.1H82.375V62.1ZM48.25 62.1H47.25V63.1H48.25V62.1ZM103.375 62.1H102.375V63.1H103.375V62.1ZM90.25 62.1V63.1H91.25V62.1H90.25ZM92.875 62.1H91.875V63.1H92.875V62.1ZM100.75 62.1V63.1H101.75V62.1H100.75ZM95.5 29.3H48.25V31.3H95.5V29.3ZM96.5 48.85V30.3H94.5V48.85H96.5ZM101.253 49.3901C99.5531 48.4013 97.5948 47.85 95.5 47.85V49.85C97.2377 49.85 98.8494 50.3057 100.247 51.1189L101.253 49.3901ZM99.75 30.3V50.2545H101.75V30.3H99.75ZM95.5 26C97.8383 26 99.75 27.9162 99.75 30.3H101.75C101.75 26.8296 98.9607 24 95.5 24V26ZM48.25 26H95.5V24H48.25V26ZM44 30.3C44 27.9018 45.8975 26 48.25 26V24C44.775 24 42 26.8152 42 30.3H44ZM44 62.1V30.3H42V62.1H44ZM48.25 66.4C45.9007 66.4 44 64.4749 44 62.1H42C42 65.555 44.7718 68.4 48.25 68.4V66.4ZM66.625 66.4H48.25V68.4H66.625V66.4ZM67.625 72.7V67.4H65.625V72.7H67.625ZM61.375 73.7H66.625V71.7H61.375V73.7ZM62.375 78V72.7H60.375V78H62.375ZM82.375 77H61.375V79H82.375V77ZM81.375 72.7V78H83.375V72.7H81.375ZM77.125 73.7H82.375V71.7H77.125V73.7ZM76.125 67.4V72.7H78.125V67.4H76.125ZM82.375 66.4H77.125V68.4H82.375V66.4ZM81.375 62.1V67.4H83.375V62.1H81.375ZM48.25 63.1H82.375V61.1H48.25V63.1ZM47.25 30.3V62.1H49.25V30.3H47.25ZM104.375 60.775C104.375 56.5728 100.998 53.15 96.8125 53.15V55.15C99.8757 55.15 102.375 57.6594 102.375 60.775H104.375ZM104.375 62.1V60.775H102.375V62.1H104.375ZM107 64.75C107 62.7431 105.386 61.1 103.375 61.1V63.1C104.264 63.1 105 63.8298 105 64.75H107ZM107 75.35V64.75H105V75.35H107ZM103.375 79C105.386 79 107 77.3569 107 75.35H105C105 76.2702 104.264 77 103.375 77V79ZM90.25 79H103.375V77H90.25V79ZM86.625 75.35C86.625 77.3569 88.2391 79 90.25 79V77C89.3615 77 88.625 76.2702 88.625 75.35H86.625ZM86.625 64.75V75.35H88.625V64.75H86.625ZM90.25 61.1C88.239 61.1 86.625 62.7431 86.625 64.75H88.625C88.625 63.8298 89.3615 63.1 90.25 63.1V61.1ZM89.25 60.775V62.1H91.25V60.775H89.25ZM96.8125 53.15C92.6269 53.15 89.25 56.5728 89.25 60.775H91.25C91.25 57.6594 93.7493 55.15 96.8125 55.15V53.15ZM93.875 60.775C93.875 59.123 95.1991 57.8 96.8125 57.8V55.8C94.0767 55.8 91.875 58.0363 91.875 60.775H93.875ZM93.875 62.1V60.775H91.875V62.1H93.875ZM100.75 61.1H92.875V63.1H100.75V61.1ZM99.75 60.775V62.1H101.75V60.775H99.75ZM96.8125 57.8C98.4259 57.8 99.75 59.123 99.75 60.775H101.75C101.75 58.0363 99.5483 55.8 96.8125 55.8V57.8Z" fill="white"/>
<path fill-rule="evenodd" clip-rule="evenodd" d="M76.8175 38.47C76.7374 38.47 76.6574 38.45 76.5873 38.41C74.6661 37.42 73.005 37 71.0037 37C69.0324 37 67.1511 37.47 65.44 38.41C65.1998 38.54 64.8996 38.45 64.7595 38.21C64.6295 37.97 64.7195 37.66 64.9597 37.53C66.8209 36.5 68.8622 36 71.0037 36C73.1451 36 75.0063 36.47 77.0477 37.5C77.2978 37.65 77.3879 37.95 77.2578 38.19C77.1677 38.37 77.0076 38.47 76.8175 38.47ZM62.498 43.72C62.398 43.72 62.2979 43.69 62.2079 43.63C61.9977 43.47 61.9277 43.16 62.0878 42.93C63.0784 41.53 64.3393 40.43 65.8403 39.66C69.0023 38.04 73.005 38.03 76.1571 39.65C77.6581 40.42 78.9189 41.5 79.9095 42.9C80.0697 43.12 80.0096 43.44 79.7895 43.6C79.5593 43.76 79.2491 43.71 79.089 43.5C78.1884 42.22 77.0477 41.23 75.6968 40.54C72.8249 39.07 69.1524 39.07 66.2905 40.55C64.9296 41.25 63.7889 42.25 62.8883 43.5C62.8082 43.65 62.6581 43.72 62.498 43.72ZM68.4019 55.64C68.502 55.74 68.6221 55.79 68.7522 55.79C68.8823 55.79 69.0023 55.74 69.1224 55.64C69.3125 55.44 69.3125 55.13 69.1224 54.93C68.3519 54.15 67.9116 53.66 67.2712 52.5C66.6608 51.43 66.3406 50.1 66.3406 48.66C66.3406 46.24 68.432 44.27 71.0037 44.27C73.5754 44.27 75.6667 46.24 75.6667 48.66C75.6667 48.9361 75.8907 49.16 76.1671 49.16C76.4434 49.16 76.6674 48.9361 76.6674 48.66C76.6674 45.69 74.1257 43.27 71.0037 43.27C67.8816 43.27 65.3399 45.69 65.3399 48.66C65.3399 50.27 65.7002 51.77 66.3906 53C67.0611 54.21 67.5314 54.77 68.4019 55.64ZM75.9269 53.94C74.7361 53.94 73.6854 53.64 72.8249 53.05C71.3339 52.04 70.4433 50.4 70.4433 48.66C70.4433 48.3839 70.6673 48.16 70.9436 48.16C71.2199 48.16 71.444 48.3839 71.444 48.66C71.444 50.07 72.1644 51.4 73.3852 52.22C74.0957 52.7 74.9263 52.93 75.9269 52.93C76.1671 52.93 76.5673 52.9 76.9676 52.83C77.2378 52.78 77.508 52.96 77.548 53.24C77.598 53.5 77.4179 53.77 77.1377 53.82C76.5673 53.93 76.067 53.94 75.9269 53.94ZM73.7855 56H73.9156C74.1257 56 74.3359 55.85 74.3859 55.62C74.4559 55.36 74.3058 55.08 74.0357 55C72.6247 54.62 71.7141 54.1 70.7635 53.16C69.5527 51.96 68.8923 50.36 68.8923 48.65C68.8923 47.58 69.8229 46.71 70.9736 46.71C72.1244 46.71 73.055 47.58 73.055 48.65C73.055 50.27 74.4359 51.59 76.1371 51.59C77.8382 51.59 79.2191 50.27 79.2191 48.65C79.2191 44.33 75.5066 40.82 70.9636 40.82C67.7315 40.82 64.7796 42.63 63.4487 45.42C62.9984 46.37 62.7682 47.46 62.7682 48.66C62.7682 50 62.9984 51.31 63.4987 52.62C63.5888 52.87 63.879 53 64.1391 52.91C64.3993 52.82 64.5294 52.53 64.4293 52.27C63.8289 50.67 63.7589 49.44 63.7589 48.66C63.7589 47.62 63.959 46.67 64.3493 45.86C65.5 43.41 68.1218 41.83 70.9636 41.83C74.9663 41.83 78.2184 44.89 78.2184 48.66C78.2184 49.73 77.2878 50.6 76.1371 50.6C75.0063 50.6 74.0557 49.73 74.0557 48.66C74.0557 47.04 72.6748 45.72 70.9736 45.72C69.2725 45.72 67.8916 47.04 67.8916 48.66C67.8916 50.64 68.6621 52.5 70.063 53.88C71.1538 54.95 72.1944 55.54 73.7855 56Z" fill="url(#paint1_linear)"/>
<defs>
<linearGradient id="paint0_linear" x1="43" y1="25" x2="43" y2="78" gradientUnits="userSpaceOnUse">
<stop stop-color="#959DFF"/>
<stop offset="1" stop-color="#9585FA"/>
</linearGradient>
<linearGradient id="paint1_linear" x1="62" y1="36" x2="62" y2="56" gradientUnits="userSpaceOnUse">
<stop stop-color="#50E3C2"/>
<stop offset="0.962631" stop-color="#50E3C2" stop-opacity="0.777995"/>
</linearGradient>
</defs>
</svg>
