<svg width="129" height="106" viewBox="0 0 129 106" fill="none" xmlns="http://www.w3.org/2000/svg">
<path opacity="0.146456" fill-rule="evenodd" clip-rule="evenodd" d="M37.5859 105.67C67.9921 105.67 103.758 99.9791 103.758 70.799C103.758 51.7512 119.774 24.3976 96.3469 10.567C83.885 3.21004 48.1439 0 37.5859 0C7.17963 0 0 22.0202 0 51.2002C0 80.3802 7.17963 105.67 37.5859 105.67Z" fill="#50E3C2"/>
<path opacity="0.146456" fill-rule="evenodd" clip-rule="evenodd" d="M116.406 79.5958C121.761 79.5958 128.059 78.3762 128.059 72.1234C128.059 68.0417 130.88 62.1802 126.754 59.2165C124.559 57.64 118.265 56.9521 116.406 56.9521C111.052 56.9521 109.787 61.6708 109.787 67.9236C109.787 74.1765 111.052 79.5958 116.406 79.5958Z" fill="#50E3C2"/>
<path fill-rule="evenodd" clip-rule="evenodd" d="M80.9934 58.4789C81.6046 55.684 81.9264 52.857 81.9264 49.9657V30.6906L52.9712 17.8405L24.016 30.6906V49.9657C24.016 67.7952 36.3702 84.4682 52.9712 88.516L56.8962 87.2952C55.6415 85.6568 54.5798 83.7936 53.9685 81.8018L52.9712 82.0909C40.9065 78.8784 30.4504 64.5506 30.4504 50.6725V34.8668L52.9712 24.8438L75.4919 34.8668V50.6725C75.4919 52.6321 75.2667 54.6239 74.8806 56.5514C77.1005 56.8726 79.1274 57.5151 80.9934 58.4789ZM75.6089 88.516V79.0818H85.0851V72.7288H75.6089V63.1994H69.2914V72.7288H59.8151V79.0818H69.2914V88.516H75.6089Z" fill="url(#paint0_linear)"/>
<path d="M80.9934 58.4789L80.5345 59.3674L81.6919 59.9652L81.9703 58.6925L80.9934 58.4789ZM81.9264 30.6906H82.9264V30.0403L82.332 29.7765L81.9264 30.6906ZM52.9712 17.8405L53.3768 16.9264L52.9712 16.7464L52.5655 16.9264L52.9712 17.8405ZM24.016 30.6906L23.6103 29.7765L23.016 30.0403V30.6906H24.016ZM52.9712 88.516L52.7343 89.4875L53.0035 89.5532L53.2681 89.4709L52.9712 88.516ZM56.8962 87.2952L57.1932 88.2501L58.5612 87.8246L57.6901 86.6872L56.8962 87.2952ZM53.9685 81.8018L54.9245 81.5084L54.6356 80.5672L53.6901 80.8414L53.9685 81.8018ZM52.9712 82.0909L52.7139 83.0573L52.9825 83.1288L53.2496 83.0514L52.9712 82.0909ZM30.4504 34.8668L30.0438 33.9532L29.4504 34.2173V34.8668H30.4504ZM52.9712 24.8438L53.3778 23.9302L52.9712 23.7492L52.5646 23.9302L52.9712 24.8438ZM75.4919 34.8668H76.4919V34.2173L75.8985 33.9532L75.4919 34.8668ZM74.8806 56.5514L73.9001 56.355L73.6928 57.3899L74.7374 57.5411L74.8806 56.5514ZM75.6089 79.0818V78.0818H74.6089V79.0818H75.6089ZM75.6089 88.516V89.516H76.6089V88.516H75.6089ZM85.0851 79.0818V80.0818H86.0851V79.0818H85.0851ZM85.0851 72.7288H86.0851V71.7288H85.0851V72.7288ZM75.6089 72.7288H74.6089V73.7288H75.6089V72.7288ZM75.6089 63.1994H76.6089V62.1994H75.6089V63.1994ZM69.2914 63.1994V62.1994H68.2914V63.1994H69.2914ZM69.2914 72.7288V73.7288H70.2914V72.7288H69.2914ZM59.8151 72.7288V71.7288H58.8151V72.7288H59.8151ZM59.8151 79.0818H58.8151V80.0818H59.8151V79.0818ZM69.2914 79.0818H70.2914V78.0818H69.2914V79.0818ZM69.2914 88.516H68.2914V89.516H69.2914V88.516ZM80.9264 49.9657C80.9264 52.7818 80.6131 55.5372 80.0164 58.2652L81.9703 58.6925C82.5962 55.8308 82.9264 52.9322 82.9264 49.9657H80.9264ZM80.9264 30.6906V49.9657H82.9264V30.6906H80.9264ZM52.5655 18.7545L81.5207 31.6046L82.332 29.7765L53.3768 16.9264L52.5655 18.7545ZM24.4216 31.6046L53.3768 18.7545L52.5655 16.9264L23.6103 29.7765L24.4216 31.6046ZM25.016 49.9657V30.6906H23.016V49.9657H25.016ZM53.208 87.5444C37.0932 83.6152 25.016 67.3747 25.016 49.9657H23.016C23.016 68.2157 35.6471 85.3212 52.7343 89.4875L53.208 87.5444ZM56.5992 86.3403L52.6742 87.5611L53.2681 89.4709L57.1932 88.2501L56.5992 86.3403ZM53.0125 82.0952C53.6666 84.2265 54.7938 86.1946 56.1023 87.9032L57.6901 86.6872C56.4892 85.119 55.4929 83.3606 54.9245 81.5084L53.0125 82.0952ZM53.2496 83.0514L54.2469 82.7623L53.6901 80.8414L52.6927 81.1305L53.2496 83.0514ZM29.4504 50.6725C29.4504 57.8536 32.1508 65.1056 36.3754 70.966C40.5963 76.8215 46.4052 81.3774 52.7139 83.0573L53.2285 81.1246C47.4725 79.5919 42.021 75.3776 37.9978 69.7965C33.9782 64.2204 31.4504 57.3694 31.4504 50.6725H29.4504ZM29.4504 34.8668V50.6725H31.4504V34.8668H29.4504ZM52.5646 23.9302L30.0438 33.9532L30.8571 35.7804L53.3778 25.7574L52.5646 23.9302ZM75.8985 33.9532L53.3778 23.9302L52.5646 25.7574L75.0853 35.7804L75.8985 33.9532ZM76.4919 50.6725V34.8668H74.4919V50.6725H76.4919ZM75.8611 56.7478C76.2582 54.7652 76.4919 52.7071 76.4919 50.6725H74.4919C74.4919 52.557 74.2751 54.4825 73.9001 56.355L75.8611 56.7478ZM81.4522 57.5904C79.4822 56.5729 77.3479 55.898 75.0238 55.5617L74.7374 57.5411C76.8531 57.8472 78.7725 58.4574 80.5345 59.3674L81.4522 57.5904ZM74.6089 79.0818V88.516H76.6089V79.0818H74.6089ZM85.0851 78.0818H75.6089V80.0818H85.0851V78.0818ZM84.0851 72.7288V79.0818H86.0851V72.7288H84.0851ZM75.6089 73.7288H85.0851V71.7288H75.6089V73.7288ZM74.6089 63.1994V72.7288H76.6089V63.1994H74.6089ZM69.2914 64.1994H75.6089V62.1994H69.2914V64.1994ZM70.2914 72.7288V63.1994H68.2914V72.7288H70.2914ZM59.8151 73.7288H69.2914V71.7288H59.8151V73.7288ZM60.8151 79.0818V72.7288H58.8151V79.0818H60.8151ZM69.2914 78.0818H59.8151V80.0818H69.2914V78.0818ZM70.2914 88.516V79.0818H68.2914V88.516H70.2914ZM75.6089 87.516H69.2914V89.516H75.6089V87.516Z" fill="white"/>
<path fill-rule="evenodd" clip-rule="evenodd" d="M54.5505 37.8828C55.925 37.8828 57.0392 38.969 57.0392 40.3089C57.0392 41.2066 56.5415 41.9951 55.7949 42.4076V43.9482H57.0392C61.8499 43.9482 65.7497 47.75 65.7497 52.4398H66.9941C67.6813 52.4398 68.2384 52.9829 68.2384 53.6529V57.2922C68.2384 57.9621 67.6813 58.5052 66.9941 58.5052H65.7497V59.7183C65.7497 61.0583 64.6355 62.1445 63.261 62.1445H45.84C44.4656 62.1445 43.3513 61.0583 43.3513 59.7183V58.5052H42.107C41.4197 58.5052 40.8626 57.9621 40.8626 57.2922V53.6529C40.8626 52.9829 41.4197 52.4398 42.107 52.4398H43.3513C43.3513 47.75 47.2511 43.9482 52.0618 43.9482H53.3062V42.4076C52.5596 41.9951 52.0618 41.2066 52.0618 40.3089C52.0618 38.969 53.176 37.8828 54.5505 37.8828ZM48.9509 51.2267C47.2328 51.2267 45.84 52.5845 45.84 54.2594C45.84 55.9344 47.2328 57.2922 48.9509 57.2922C50.669 57.2922 52.0618 55.9344 52.0618 54.2594C52.0618 52.5845 50.669 51.2267 48.9509 51.2267ZM57.0392 54.2594C57.0392 52.5845 58.432 51.2267 60.1501 51.2267C61.8682 51.2267 63.261 52.5845 63.261 54.2594C63.261 55.9344 61.8682 57.2922 60.1501 57.2922C58.432 57.2922 57.0392 55.9344 57.0392 54.2594Z" fill="url(#paint1_linear)"/>
<defs>
<linearGradient id="paint0_linear" x1="24.016" y1="17.8405" x2="24.016" y2="88.516" gradientUnits="userSpaceOnUse">
<stop stop-color="#959DFF"/>
<stop offset="1" stop-color="#9585FA"/>
</linearGradient>
<linearGradient id="paint1_linear" x1="40.8626" y1="37.8828" x2="40.8626" y2="62.1445" gradientUnits="userSpaceOnUse">
<stop stop-color="#50E3C2"/>
<stop offset="0.962631" stop-color="#50E3C2" stop-opacity="0.777995"/>
</linearGradient>
</defs>
</svg>
