<svg width="135" height="100" viewBox="0 0 135 100" fill="none" xmlns="http://www.w3.org/2000/svg">
<path opacity="0.146456" fill-rule="evenodd" clip-rule="evenodd" d="M79.5464 0C50.8276 0 17.0464 5.38577 17.0464 33C17.0464 51.0257 1.91908 76.9116 24.0464 90C35.8167 96.9622 69.5743 100 79.5464 100C108.265 100 115.046 79.1614 115.046 51.5472C115.046 23.9329 108.265 0 79.5464 0Z" fill="#50E3C2"/>
<path opacity="0.146456" fill-rule="evenodd" clip-rule="evenodd" d="M123.201 81.47C128.218 81.47 134.119 80.3137 134.119 74.3849C134.119 70.5148 136.761 64.9571 132.896 62.147C130.84 60.6522 124.943 60 123.201 60C118.185 60 117 64.474 117 70.4028C117 76.3316 118.185 81.47 123.201 81.47Z" fill="#50E3C2"/>
<path opacity="0.146456" fill-rule="evenodd" clip-rule="evenodd" d="M4.47856 49.5061C8.10164 49.5061 12.3634 48.671 12.3634 44.3891C12.3634 41.594 14.2718 37.5801 11.4803 35.5506C9.99536 34.471 5.73661 34 4.47856 34C0.855493 34 0 37.2313 0 41.5132C0 45.795 0.855493 49.5061 4.47856 49.5061Z" fill="#50E3C2"/>
<path fill-rule="evenodd" clip-rule="evenodd" d="M43.1667 26H77.8333C79.0299 26 80 26.9768 80 28.1818V36.9091C80 38.1141 79.0299 39.0909 77.8333 39.0909H43.1667C41.97 39.0909 41 38.1141 41 36.9091V28.1818C41 26.9768 41.97 26 43.1667 26ZM43.1667 43.4545H77.8333C79.0299 43.4545 80 44.4314 80 45.6364V54.3636C80 55.5686 79.0299 56.5455 77.8333 56.5455H43.1667C41.97 56.5455 41 55.5686 41 54.3636V45.6364C41 44.4314 41.97 43.4545 43.1667 43.4545ZM77.8333 60.9091H43.1667C41.97 60.9091 41 61.8859 41 63.0909V71.8182C41 73.0232 41.97 74 43.1667 74H77.8333C79.0299 74 80 73.0232 80 71.8182V63.0909C80 61.8859 79.0299 60.9091 77.8333 60.9091ZM54 34.7273H56.1667V30.3636H54V34.7273ZM56.1667 52.1818H54V47.8182H56.1667V52.1818ZM54 69.6364H56.1667V65.2727H54V69.6364ZM45.3333 34.7273V30.3636H49.6667V34.7273H45.3333ZM45.3333 47.8182V52.1818H49.6667V47.8182H45.3333ZM45.3333 69.6364V65.2727H49.6667V69.6364H45.3333Z" fill="url(#paint0_linear)"/>
<path d="M56.1667 34.7273V35.7273H57.1667V34.7273H56.1667ZM54 34.7273H53V35.7273H54V34.7273ZM56.1667 30.3636H57.1667V29.3636H56.1667V30.3636ZM54 30.3636V29.3636H53V30.3636H54ZM54 52.1818H53V53.1818H54V52.1818ZM56.1667 52.1818V53.1818H57.1667V52.1818H56.1667ZM54 47.8182V46.8182H53V47.8182H54ZM56.1667 47.8182H57.1667V46.8182H56.1667V47.8182ZM56.1667 69.6364V70.6364H57.1667V69.6364H56.1667ZM54 69.6364H53V70.6364H54V69.6364ZM56.1667 65.2727H57.1667V64.2727H56.1667V65.2727ZM54 65.2727V64.2727H53V65.2727H54ZM45.3333 30.3636V29.3636H44.3333V30.3636H45.3333ZM45.3333 34.7273H44.3333V35.7273H45.3333V34.7273ZM49.6667 30.3636H50.6667V29.3636H49.6667V30.3636ZM49.6667 34.7273V35.7273H50.6667V34.7273H49.6667ZM45.3333 52.1818H44.3333V53.1818H45.3333V52.1818ZM45.3333 47.8182V46.8182H44.3333V47.8182H45.3333ZM49.6667 52.1818V53.1818H50.6667V52.1818H49.6667ZM49.6667 47.8182H50.6667V46.8182H49.6667V47.8182ZM45.3333 65.2727V64.2727H44.3333V65.2727H45.3333ZM45.3333 69.6364H44.3333V70.6364H45.3333V69.6364ZM49.6667 65.2727H50.6667V64.2727H49.6667V65.2727ZM49.6667 69.6364V70.6364H50.6667V69.6364H49.6667ZM77.8333 25H43.1667V27H77.8333V25ZM81 28.1818C81 26.4311 79.5888 25 77.8333 25V27C78.4711 27 79 27.5225 79 28.1818H81ZM81 36.9091V28.1818H79V36.9091H81ZM77.8333 40.0909C79.5888 40.0909 81 38.6598 81 36.9091H79C79 37.5684 78.4711 38.0909 77.8333 38.0909V40.0909ZM43.1667 40.0909H77.8333V38.0909H43.1667V40.0909ZM40 36.9091C40 38.6598 41.4112 40.0909 43.1667 40.0909V38.0909C42.5289 38.0909 42 37.5684 42 36.9091H40ZM40 28.1818V36.9091H42V28.1818H40ZM43.1667 25C41.4112 25 40 26.4311 40 28.1818H42C42 27.5225 42.5289 27 43.1667 27V25ZM77.8333 42.4545H43.1667V44.4545H77.8333V42.4545ZM81 45.6364C81 43.8857 79.5888 42.4545 77.8333 42.4545V44.4545C78.4711 44.4545 79 44.9771 79 45.6364H81ZM81 54.3636V45.6364H79V54.3636H81ZM77.8333 57.5455C79.5888 57.5455 81 56.1143 81 54.3636H79C79 55.0229 78.4711 55.5455 77.8333 55.5455V57.5455ZM43.1667 57.5455H77.8333V55.5455H43.1667V57.5455ZM40 54.3636C40 56.1143 41.4112 57.5455 43.1667 57.5455V55.5455C42.5289 55.5455 42 55.0229 42 54.3636H40ZM40 45.6364V54.3636H42V45.6364H40ZM43.1667 42.4545C41.4112 42.4545 40 43.8857 40 45.6364H42C42 44.9771 42.5289 44.4545 43.1667 44.4545V42.4545ZM43.1667 61.9091H77.8333V59.9091H43.1667V61.9091ZM42 63.0909C42 62.4316 42.5289 61.9091 43.1667 61.9091V59.9091C41.4112 59.9091 40 61.3402 40 63.0909H42ZM42 71.8182V63.0909H40V71.8182H42ZM43.1667 73C42.5289 73 42 72.4775 42 71.8182H40C40 73.5689 41.4112 75 43.1667 75V73ZM77.8333 73H43.1667V75H77.8333V73ZM79 71.8182C79 72.4775 78.4711 73 77.8333 73V75C79.5888 75 81 73.5689 81 71.8182H79ZM79 63.0909V71.8182H81V63.0909H79ZM77.8333 61.9091C78.4711 61.9091 79 62.4316 79 63.0909H81C81 61.3402 79.5888 59.9091 77.8333 59.9091V61.9091ZM56.1667 33.7273H54V35.7273H56.1667V33.7273ZM55.1667 30.3636V34.7273H57.1667V30.3636H55.1667ZM54 31.3636H56.1667V29.3636H54V31.3636ZM55 34.7273V30.3636H53V34.7273H55ZM54 53.1818H56.1667V51.1818H54V53.1818ZM53 47.8182V52.1818H55V47.8182H53ZM56.1667 46.8182H54V48.8182H56.1667V46.8182ZM57.1667 52.1818V47.8182H55.1667V52.1818H57.1667ZM56.1667 68.6364H54V70.6364H56.1667V68.6364ZM55.1667 65.2727V69.6364H57.1667V65.2727H55.1667ZM54 66.2727H56.1667V64.2727H54V66.2727ZM55 69.6364V65.2727H53V69.6364H55ZM44.3333 30.3636V34.7273H46.3333V30.3636H44.3333ZM49.6667 29.3636H45.3333V31.3636H49.6667V29.3636ZM50.6667 34.7273V30.3636H48.6667V34.7273H50.6667ZM45.3333 35.7273H49.6667V33.7273H45.3333V35.7273ZM46.3333 52.1818V47.8182H44.3333V52.1818H46.3333ZM49.6667 51.1818H45.3333V53.1818H49.6667V51.1818ZM48.6667 47.8182V52.1818H50.6667V47.8182H48.6667ZM45.3333 48.8182H49.6667V46.8182H45.3333V48.8182ZM44.3333 65.2727V69.6364H46.3333V65.2727H44.3333ZM49.6667 64.2727H45.3333V66.2727H49.6667V64.2727ZM50.6667 69.6364V65.2727H48.6667V69.6364H50.6667ZM45.3333 70.6364H49.6667V68.6364H45.3333V70.6364Z" fill="white"/>
<path fill-rule="evenodd" clip-rule="evenodd" d="M83.5 41L73 45.7273V52.8182C73 59.3773 77.48 65.5109 83.5 67C89.52 65.5109 94 59.3773 94 52.8182V45.7273L83.5 41ZM83.5 48.0909C85.1333 48.0909 86.7667 49.3909 86.7667 51.0455V52.8182C87.4667 52.8182 88.1667 53.5273 88.1667 54.3545V58.4909C88.1667 59.2 87.4667 59.9091 86.65 59.9091H80.2333C79.5333 59.9091 78.8333 59.2 78.8333 58.3727V54.2364C78.8333 53.5273 79.5333 52.8182 80.2333 52.8182V51.0455C80.2333 49.3909 81.8667 48.0909 83.5 48.0909ZM81.75 51.0455C81.75 50.1 82.5667 49.5091 83.5 49.5091C84.4333 49.5091 85.25 50.1 85.25 51.0455V52.8182H81.75V51.0455Z" fill="url(#paint1_linear)"/>
<defs>
<linearGradient id="paint0_linear" x1="41" y1="26" x2="41" y2="74" gradientUnits="userSpaceOnUse">
<stop stop-color="#959DFF"/>
<stop offset="1" stop-color="#9585FA"/>
</linearGradient>
<linearGradient id="paint1_linear" x1="73" y1="41" x2="73" y2="67" gradientUnits="userSpaceOnUse">
<stop stop-color="#50E3C2"/>
<stop offset="0.962631" stop-color="#50E3C2" stop-opacity="0.777995"/>
</linearGradient>
</defs>
</svg>
