<?xml version="1.0" encoding="utf-8"?>
<!-- Generator: Adobe Illustrator 16.0.0, SVG Export Plug-In . SVG Version: 6.00 Build 0)  -->
<!DOCTYPE svg PUBLIC "-//W3C//DTD SVG 1.1//EN" "http://www.w3.org/Graphics/SVG/1.1/DTD/svg11.dtd">
<svg version="1.1" id="Layer_1" xmlns="http://www.w3.org/2000/svg" xmlns:xlink="http://www.w3.org/1999/xlink" x="0px" y="0px"
	 width="444px" height="260px" viewBox="0 0 444 260" enable-background="new 0 0 444 260" xml:space="preserve">
<g>
	<path fill-rule="evenodd" clip-rule="evenodd" fill="#2F39BF" d="M177.835,212.946c-1.626-1.73-2.96-3.089-4.226-4.509
		c-4.797-5.38-8.687-11.354-11.562-17.966c-0.461-1.059-1.027-1.444-2.195-1.423c-4.147,0.075-8.298,0.04-12.447,0.025
		c-3.662-0.011-5.601-1.84-5.709-5.477c-0.073-2.436-0.076-4.877,0.003-7.312c0.117-3.579,2.033-5.369,5.615-5.374
		c2.993-0.006,5.987-0.001,9.172-0.001c-0.749-8.151-0.617-16.083,1.135-24.174c-0.916,0-1.622,0-2.327,0
		c-36.771,0-73.542,0.002-110.313-0.002c-5.007,0-8.718-2.923-9.625-7.549c-1.071-5.462,3.102-10.681,8.717-10.895
		c0.57-0.021,1.141-0.007,1.711-0.007c38.95,0,77.898-0.009,116.848,0.034c1.437,0.001,2.194-0.457,2.903-1.684
		c4.786-8.281,11.068-15.243,18.783-20.906c0.404-0.297,0.791-0.62,1.142-1.312c-0.631,0-1.263,0-1.894,0
		c-29.666,0-59.331,0.019-88.997-0.045c-1.812-0.004-3.772-0.323-5.405-1.064c-3.872-1.756-5.793-6.188-4.818-10.295
		c0.963-4.06,4.722-7.039,8.968-7.043c13.069-0.014,26.139-0.006,39.208-0.006c23.909,0,47.817-0.012,71.726,0.033
		c1.401,0.002,2.081-0.34,2.551-1.735c2.428-7.216,5.963-13.878,10.39-20.069c0.411-0.575,0.811-1.159,1.407-2.012
		c-0.977-0.044-1.667-0.104-2.357-0.104c-34.696-0.005-69.392,0.016-104.088-0.057c-1.952-0.004-4.085-0.399-5.814-1.257
		c-3.721-1.846-5.436-6.27-4.379-10.176c1.152-4.258,4.669-6.945,9.163-6.945c41.905-0.005,83.811-0.008,125.716,0.019
		c1.351,0.001,2.483-0.311,3.639-1.009c10.742-6.485,22.369-10.094,34.914-10.915c36.488-2.389,69.154,21.588,79.423,56.369
		c0.585,1.982,1.128,3.987,1.514,6.015c0.204,1.069,0.64,1.54,1.667,1.9c22.745,7.963,37.851,23.506,44.543,46.579
		c10.771,37.135-10.378,75.234-46.359,85.849c-5.644,1.664-11.414,2.613-17.29,2.645c-26.539,0.146-53.078,0.285-79.617,0.309
		c-52.485,0.046-104.971,0.02-157.456-0.02c-1.57-0.002-3.247-0.219-4.692-0.795c-4.079-1.624-6.209-5.871-5.399-10.249
		c0.762-4.111,4.495-7.236,8.834-7.389c0.466-0.015,0.933-0.004,1.4-0.004c24.479,0,48.958,0,73.438,0
		C176.056,212.946,176.719,212.946,177.835,212.946z"/>
	<path fill-rule="evenodd" clip-rule="evenodd" fill="#2F39BF" d="M79.692,189.078c-10.571,0-21.142,0.002-31.714-0.001
		c-4.275-0.002-6.083-1.771-6.101-5.993c-0.011-2.436-0.041-4.873,0.033-7.307c0.087-2.863,2.111-4.853,4.983-4.855
		c21.919-0.018,43.839-0.019,65.759,0.002c2.875,0.002,4.942,2.078,5.032,5.037c0.084,2.796,0.086,5.599,0.003,8.395
		c-0.083,2.788-2.377,4.712-5.504,4.718c-7.255,0.014-14.511,0.005-21.765,0.005C86.843,189.078,83.268,189.078,79.692,189.078z"/>
</g>
</svg>
